<?xml version="1.0" ?><svg enable-background="new 0 0 32 32" id="style_2_copy" version="1.1" viewBox="0 0 32 32" xml:space="preserve" xmlns="http://www.w3.org/2000/svg" xmlns:xlink="http://www.w3.org/1999/xlink"><g><g><g opacity="0.4"><path d="M16,31.75C7.315,31.75,0.25,24.685,0.25,16S7.315,0.25,16,0.25S31.75,7.315,31.75,16     S24.685,31.75,16,31.75z" fill="#E5E5E5"/><path d="M16,0.5c8.547,0,15.5,6.953,15.5,15.5c0,8.547-6.953,15.5-15.5,15.5S0.5,24.547,0.5,16     C0.5,7.453,7.453,0.5,16,0.5 M16,0C7.178,0,0,7.178,0,16c0,8.822,7.178,16,16,16s16-7.178,16-16C32,7.178,24.822,0,16,0L16,0z" fill="#CCCCCC"/></g><g><path d="M16,31.75C7.315,31.75,0.25,24.685,0.25,16S7.315,0.25,16,0.25S31.75,7.315,31.75,16     S24.685,31.75,16,31.75z" fill="#E5E5E5"/><path d="M16,0.5c8.547,0,15.5,6.953,15.5,15.5c0,8.547-6.953,15.5-15.5,15.5S0.5,24.547,0.5,16     C0.5,7.453,7.453,0.5,16,0.5 M16,0C7.178,0,0,7.178,0,16c0,8.822,7.178,16,16,16s16-7.178,16-16C32,7.178,24.822,0,16,0L16,0z" fill="#CCCCCC"/></g></g><g><path d="M16,30.625C7.936,30.625,1.375,24.064,1.375,16C1.375,7.936,7.936,1.375,16,1.375S30.625,7.936,30.625,16    C30.625,24.064,24.064,30.625,16,30.625z" fill="#FFFFFF"/><path d="M16,30.625C7.936,30.625,1.375,24.064,1.375,16C1.375,7.936,7.936,1.375,16,1.375S30.625,7.936,30.625,16    C30.625,24.064,24.064,30.625,16,30.625z" fill="#FFFFFF"/></g><g><g opacity="0.4"><path d="M16,29.754c-7.584,0-13.754-6.17-13.754-13.754C2.246,8.416,8.416,2.246,16,2.246S29.754,8.416,29.754,16     C29.754,23.584,23.584,29.754,16,29.754z" fill="#FFFFFF"/></g><path d="M16,29.754c-7.584,0-13.754-6.17-13.754-13.754C2.246,8.416,8.416,2.246,16,2.246S29.754,8.416,29.754,16    C29.754,23.584,23.584,29.754,16,29.754z" fill="#FFFFFF"/></g><g><g opacity="0.4"><path d="M16,29.754c-7.584,0-13.754-6.17-13.754-13.754C2.246,8.416,8.416,2.246,16,2.246S29.754,8.416,29.754,16     C29.754,23.584,23.584,29.754,16,29.754z" fill="#FFFFFF"/></g><path d="M16,29.754c-7.584,0-13.754-6.17-13.754-13.754C2.246,8.416,8.416,2.246,16,2.246S29.754,8.416,29.754,16    C29.754,23.584,23.584,29.754,16,29.754z" fill="#333333"/></g><g><g opacity="0.4"><path d="M16,28.577C9.065,28.577,3.423,22.935,3.423,16C3.423,9.065,9.065,3.423,16,3.423S28.577,9.065,28.577,16     C28.577,22.935,22.935,28.577,16,28.577z" fill="#FFFFFF"/></g><path d="M16,28.577C9.065,28.577,3.423,22.935,3.423,16C3.423,9.065,9.065,3.423,16,3.423S28.577,9.065,28.577,16    C28.577,22.935,22.935,28.577,16,28.577z" fill="#FFFFFF"/></g></g><path d="M21.976,11.084c-0.014,0.021-1.256,1.814-4.311,3.062c0.18,0.369,0.354,0.745,0.515,1.122  c0.057,0.135,0.113,0.268,0.167,0.401c2.659-0.335,5.278,0.228,5.39,0.251C23.718,14.086,23.061,12.402,21.976,11.084z   M18.818,16.89c1.015,2.789,1.427,5.061,1.506,5.528c1.737-1.172,2.972-3.034,3.316-5.191C23.481,17.175,21.316,16.49,18.818,16.89z   M19.021,23.125c-0.114-0.676-0.564-3.046-1.653-5.876c-0.017,0.006-0.034,0.011-0.052,0.017c-4.566,1.591-6.057,4.799-6.073,4.834  c1.314,1.022,2.962,1.638,4.757,1.638C17.071,23.739,18.092,23.52,19.021,23.125z M17.069,12.993  c2.92-1.094,4.022-2.772,4.041-2.801c-1.362-1.201-3.151-1.93-5.11-1.93c-0.629,0-1.239,0.076-1.824,0.217  C14.292,8.634,15.746,10.562,17.069,12.993z M16.84,15.966c-0.194-0.44-0.406-0.881-0.628-1.315  c-3.985,1.193-7.808,1.107-7.945,1.102C8.265,15.836,8.261,15.917,8.261,16c0,1.988,0.75,3.801,1.983,5.17  c-0.003-0.003,2.115-3.761,6.291-5.111C16.636,16.026,16.739,15.996,16.84,15.966z M24.877,14.176  c0.122,0.596,0.185,1.21,0.185,1.825c0,0.613-0.062,1.226-0.185,1.824c-0.12,0.583-0.297,1.156-0.528,1.703  c-0.226,0.537-0.507,1.056-0.836,1.539c-0.323,0.48-0.696,0.93-1.105,1.341c-0.41,0.408-0.862,0.781-1.341,1.106  c-0.484,0.326-1.003,0.607-1.54,0.835c-0.547,0.231-1.12,0.408-1.702,0.527c-0.598,0.123-1.212,0.186-1.825,0.186  c-0.615,0-1.229-0.062-1.825-0.186c-0.583-0.12-1.156-0.297-1.703-0.527c-0.537-0.228-1.056-0.509-1.54-0.835  c-0.479-0.325-0.93-0.698-1.34-1.106c-0.41-0.411-0.782-0.861-1.106-1.341c-0.327-0.483-0.608-1.002-0.836-1.539  c-0.232-0.547-0.409-1.12-0.529-1.703C7,17.227,6.938,16.614,6.938,16c0-0.615,0.062-1.229,0.184-1.825  c0.12-0.583,0.297-1.157,0.529-1.703c0.227-0.538,0.509-1.057,0.836-1.54c0.324-0.481,0.697-0.93,1.106-1.341  c0.409-0.409,0.86-0.78,1.34-1.105c0.484-0.328,1.003-0.609,1.54-0.837c0.547-0.232,1.12-0.409,1.703-0.528  C14.771,7,15.385,6.938,16,6.938c0.613,0,1.227,0.062,1.825,0.184c0.582,0.119,1.155,0.296,1.702,0.528  c0.537,0.228,1.055,0.509,1.54,0.837c0.479,0.325,0.931,0.696,1.341,1.105c0.409,0.411,0.782,0.86,1.105,1.341  c0.328,0.483,0.609,1.002,0.836,1.54C24.581,13.019,24.758,13.592,24.877,14.176z M15.572,13.46c-1.34-2.38-2.771-4.322-2.874-4.459  c-2.158,1.019-3.769,3.008-4.271,5.404C8.631,14.406,11.856,14.447,15.572,13.46z" fill="#333333"/></svg>