<?xml version="1.0" ?><svg enable-background="new 0 0 32 32" id="style_2_copy" version="1.1" viewBox="0 0 32 32" xml:space="preserve" xmlns="http://www.w3.org/2000/svg" xmlns:xlink="http://www.w3.org/1999/xlink"><g><g><g opacity="0.4"><path d="M16,31.75C7.315,31.75,0.25,24.685,0.25,16S7.315,0.25,16,0.25S31.75,7.315,31.75,16     S24.685,31.75,16,31.75z" fill="#E5E5E5"/><path d="M16,0.5c8.547,0,15.5,6.953,15.5,15.5c0,8.547-6.953,15.5-15.5,15.5S0.5,24.547,0.5,16     C0.5,7.453,7.453,0.5,16,0.5 M16,0C7.178,0,0,7.178,0,16c0,8.822,7.178,16,16,16s16-7.178,16-16C32,7.178,24.822,0,16,0L16,0z" fill="#CCCCCC"/></g><g><path d="M16,31.75C7.315,31.75,0.25,24.685,0.25,16S7.315,0.25,16,0.25S31.75,7.315,31.75,16     S24.685,31.75,16,31.75z" fill="#E5E5E5"/><path d="M16,0.5c8.547,0,15.5,6.953,15.5,15.5c0,8.547-6.953,15.5-15.5,15.5S0.5,24.547,0.5,16     C0.5,7.453,7.453,0.5,16,0.5 M16,0C7.178,0,0,7.178,0,16c0,8.822,7.178,16,16,16s16-7.178,16-16C32,7.178,24.822,0,16,0L16,0z" fill="#CCCCCC"/></g></g><g><path d="M16,30.625C7.936,30.625,1.375,24.064,1.375,16C1.375,7.936,7.936,1.375,16,1.375S30.625,7.936,30.625,16    C30.625,24.064,24.064,30.625,16,30.625z" fill="#FFFFFF"/><path d="M16,30.625C7.936,30.625,1.375,24.064,1.375,16C1.375,7.936,7.936,1.375,16,1.375S30.625,7.936,30.625,16    C30.625,24.064,24.064,30.625,16,30.625z" fill="#FFFFFF"/></g><g><g opacity="0.4"><path d="M16,29.754c-7.584,0-13.754-6.17-13.754-13.754C2.246,8.416,8.416,2.246,16,2.246S29.754,8.416,29.754,16     C29.754,23.584,23.584,29.754,16,29.754z" fill="#FFFFFF"/></g><path d="M16,29.754c-7.584,0-13.754-6.17-13.754-13.754C2.246,8.416,8.416,2.246,16,2.246S29.754,8.416,29.754,16    C29.754,23.584,23.584,29.754,16,29.754z" fill="#FFFFFF"/></g><g><g opacity="0.4"><path d="M16,29.754c-7.584,0-13.754-6.17-13.754-13.754C2.246,8.416,8.416,2.246,16,2.246S29.754,8.416,29.754,16     C29.754,23.584,23.584,29.754,16,29.754z" fill="#FFFFFF"/></g><path d="M16,29.754c-7.584,0-13.754-6.17-13.754-13.754C2.246,8.416,8.416,2.246,16,2.246S29.754,8.416,29.754,16    C29.754,23.584,23.584,29.754,16,29.754z" fill="#333333"/></g><g><g opacity="0.4"><path d="M16,28.577C9.065,28.577,3.423,22.935,3.423,16C3.423,9.065,9.065,3.423,16,3.423S28.577,9.065,28.577,16     C28.577,22.935,22.935,28.577,16,28.577z" fill="#FFFFFF"/></g><path d="M16,28.577C9.065,28.577,3.423,22.935,3.423,16C3.423,9.065,9.065,3.423,16,3.423S28.577,9.065,28.577,16    C28.577,22.935,22.935,28.577,16,28.577z" fill="#FFFFFF"/></g></g><path d="M13.892,24.123h3.357v-8.124h2.239l0.297-2.799h-2.536l0.003-1.402c0-0.73,0.07-1.121,1.117-1.121h1.4v-2.8  h-2.24c-2.69,0-3.637,1.358-3.637,3.642V13.2h-1.677V16h1.677V24.123z" fill="#333333"/></svg>