<?xml version="1.0" ?><svg enable-background="new 0 0 32 32" id="style_2_copy" version="1.1" viewBox="0 0 32 32" xml:space="preserve" xmlns="http://www.w3.org/2000/svg" xmlns:xlink="http://www.w3.org/1999/xlink"><g><g><g opacity="0.4"><path d="M16,31.75C7.315,31.75,0.25,24.685,0.25,16S7.315,0.25,16,0.25S31.75,7.315,31.75,16     S24.685,31.75,16,31.75z" fill="#E5E5E5"/><path d="M16,0.5c8.547,0,15.5,6.953,15.5,15.5c0,8.547-6.953,15.5-15.5,15.5S0.5,24.547,0.5,16     C0.5,7.453,7.453,0.5,16,0.5 M16,0C7.178,0,0,7.178,0,16c0,8.822,7.178,16,16,16s16-7.178,16-16C32,7.178,24.822,0,16,0L16,0z" fill="#CCCCCC"/></g><g><path d="M16,31.75C7.315,31.75,0.25,24.685,0.25,16S7.315,0.25,16,0.25S31.75,7.315,31.75,16     S24.685,31.75,16,31.75z" fill="#E5E5E5"/><path d="M16,0.5c8.547,0,15.5,6.953,15.5,15.5c0,8.547-6.953,15.5-15.5,15.5S0.5,24.547,0.5,16     C0.5,7.453,7.453,0.5,16,0.5 M16,0C7.178,0,0,7.178,0,16c0,8.822,7.178,16,16,16s16-7.178,16-16C32,7.178,24.822,0,16,0L16,0z" fill="#CCCCCC"/></g></g><g><path d="M16,30.625C7.936,30.625,1.375,24.064,1.375,16C1.375,7.936,7.936,1.375,16,1.375S30.625,7.936,30.625,16    C30.625,24.064,24.064,30.625,16,30.625z" fill="#FFFFFF"/><path d="M16,30.625C7.936,30.625,1.375,24.064,1.375,16C1.375,7.936,7.936,1.375,16,1.375S30.625,7.936,30.625,16    C30.625,24.064,24.064,30.625,16,30.625z" fill="#FFFFFF"/></g><g><g opacity="0.4"><path d="M16,29.754c-7.584,0-13.754-6.17-13.754-13.754C2.246,8.416,8.416,2.246,16,2.246S29.754,8.416,29.754,16     C29.754,23.584,23.584,29.754,16,29.754z" fill="#FFFFFF"/></g><path d="M16,29.754c-7.584,0-13.754-6.17-13.754-13.754C2.246,8.416,8.416,2.246,16,2.246S29.754,8.416,29.754,16    C29.754,23.584,23.584,29.754,16,29.754z" fill="#FFFFFF"/></g><g><g opacity="0.4"><path d="M16,29.754c-7.584,0-13.754-6.17-13.754-13.754C2.246,8.416,8.416,2.246,16,2.246S29.754,8.416,29.754,16     C29.754,23.584,23.584,29.754,16,29.754z" fill="#FFFFFF"/></g><path d="M16,29.754c-7.584,0-13.754-6.17-13.754-13.754C2.246,8.416,8.416,2.246,16,2.246S29.754,8.416,29.754,16    C29.754,23.584,23.584,29.754,16,29.754z" fill="#333333"/></g><g><g opacity="0.4"><path d="M16,28.577C9.065,28.577,3.423,22.935,3.423,16C3.423,9.065,9.065,3.423,16,3.423S28.577,9.065,28.577,16     C28.577,22.935,22.935,28.577,16,28.577z" fill="#FFFFFF"/></g><path d="M16,28.577C9.065,28.577,3.423,22.935,3.423,16C3.423,9.065,9.065,3.423,16,3.423S28.577,9.065,28.577,16    C28.577,22.935,22.935,28.577,16,28.577z" fill="#FFFFFF"/></g></g><path d="M16.165,6.888v4.262h4.262v2.664h-4.262v4.262c0,0.99,0.094,1.785,0.199,2.066  c0.105,0.28,0.299,0.504,0.585,0.673c0.379,0.227,0.81,0.341,1.297,0.341c0.865,0,1.87-0.294,2.714-0.949v2.664  c-0.71,0.444-1.525,0.72-2.117,0.858c-0.591,0.137-1.231,0.207-1.919,0.207c-0.719,0-1.413-0.079-2.07-0.296  c-0.6-0.197-0.935-0.416-1.36-0.779c-0.423-0.365-0.629-0.732-0.793-1.144c-0.164-0.41-0.266-1.262-0.266-2.043v-5.86h-2.131V11.15  c0.682-0.05,1.247-0.242,1.723-0.648c0.48-0.408,0.864-0.897,1.152-1.467c0.29-0.571,0.322-1.27,0.322-2.147H16.165z" fill="#333333"/></svg>