<?xml version="1.0" ?><svg enable-background="new 0 0 32 32" id="style_2_copy" version="1.1" viewBox="0 0 32 32" xml:space="preserve" xmlns="http://www.w3.org/2000/svg" xmlns:xlink="http://www.w3.org/1999/xlink"><g><g><g opacity="0.4"><path d="M16,31.75C7.315,31.75,0.25,24.685,0.25,16S7.315,0.25,16,0.25S31.75,7.315,31.75,16     S24.685,31.75,16,31.75z" fill="#E5E5E5"/><path d="M16,0.5c8.547,0,15.5,6.953,15.5,15.5c0,8.547-6.953,15.5-15.5,15.5S0.5,24.547,0.5,16     C0.5,7.453,7.453,0.5,16,0.5 M16,0C7.178,0,0,7.178,0,16c0,8.822,7.178,16,16,16s16-7.178,16-16C32,7.178,24.822,0,16,0L16,0z" fill="#CCCCCC"/></g><g><path d="M16,31.75C7.315,31.75,0.25,24.685,0.25,16S7.315,0.25,16,0.25S31.75,7.315,31.75,16     S24.685,31.75,16,31.75z" fill="#E5E5E5"/><path d="M16,0.5c8.547,0,15.5,6.953,15.5,15.5c0,8.547-6.953,15.5-15.5,15.5S0.5,24.547,0.5,16     C0.5,7.453,7.453,0.5,16,0.5 M16,0C7.178,0,0,7.178,0,16c0,8.822,7.178,16,16,16s16-7.178,16-16C32,7.178,24.822,0,16,0L16,0z" fill="#CCCCCC"/></g></g><g><path d="M16,30.625C7.936,30.625,1.375,24.064,1.375,16C1.375,7.936,7.936,1.375,16,1.375S30.625,7.936,30.625,16    C30.625,24.064,24.064,30.625,16,30.625z" fill="#FFFFFF"/><path d="M16,30.625C7.936,30.625,1.375,24.064,1.375,16C1.375,7.936,7.936,1.375,16,1.375S30.625,7.936,30.625,16    C30.625,24.064,24.064,30.625,16,30.625z" fill="#FFFFFF"/></g><g><g opacity="0.4"><path d="M16,29.754c-7.584,0-13.754-6.17-13.754-13.754C2.246,8.416,8.416,2.246,16,2.246S29.754,8.416,29.754,16     C29.754,23.584,23.584,29.754,16,29.754z" fill="#FFFFFF"/></g><path d="M16,29.754c-7.584,0-13.754-6.17-13.754-13.754C2.246,8.416,8.416,2.246,16,2.246S29.754,8.416,29.754,16    C29.754,23.584,23.584,29.754,16,29.754z" fill="#FFFFFF"/></g><g><g opacity="0.4"><path d="M16,29.754c-7.584,0-13.754-6.17-13.754-13.754C2.246,8.416,8.416,2.246,16,2.246S29.754,8.416,29.754,16     C29.754,23.584,23.584,29.754,16,29.754z" fill="#FFFFFF"/></g><path d="M16,29.754c-7.584,0-13.754-6.17-13.754-13.754C2.246,8.416,8.416,2.246,16,2.246S29.754,8.416,29.754,16    C29.754,23.584,23.584,29.754,16,29.754z" fill="#333333"/></g><g><g opacity="0.4"><path d="M16,28.577C9.065,28.577,3.423,22.935,3.423,16C3.423,9.065,9.065,3.423,16,3.423S28.577,9.065,28.577,16     C28.577,22.935,22.935,28.577,16,28.577z" fill="#FFFFFF"/></g><path d="M16,28.577C9.065,28.577,3.423,22.935,3.423,16C3.423,9.065,9.065,3.423,16,3.423S28.577,9.065,28.577,16    C28.577,22.935,22.935,28.577,16,28.577z" fill="#FFFFFF"/></g></g><path d="M23.247,21.927v-5.36c0-2.872-1.533-4.208-3.577-4.208c-1.649,0-2.388,0.907-2.8,1.544v-1.324h-3.107  c0.041,0.877,0,9.348,0,9.348h3.107v-5.221c0-0.279,0.02-0.558,0.103-0.757c0.224-0.558,0.735-1.136,1.593-1.136  c1.125,0,1.574,0.857,1.574,2.113v5.001L23.247,21.927L23.247,21.927z M10.49,11.303c1.083,0,1.758-0.718,1.758-1.616  c-0.02-0.917-0.675-1.614-1.738-1.614S8.753,8.77,8.753,9.687c0,0.897,0.675,1.616,1.717,1.616H10.49z M12.043,21.927v-9.348H8.937  v9.348H12.043z" fill="#333333"/></svg>